HIERARCHY
ROOT Hips
{
	OFFSET 0.00 0.00 0.00
	CHANNELS 6 Xposition Yposition Zposition Xrotation Yrotation Zrotation
	JOINT LeftUpLeg
	{
		OFFSET 3.76682 0.00000 0.00000
		CHANNELS 3 Xrotation Yrotation Zrotation
		JOINT LeftLeg
		{
			OFFSET 0.00000 -17.03178 0.00000
			CHANNELS 3 Xrotation Yrotation Zrotation
			JOINT LeftFoot
			{
				OFFSET 0.00000 -15.72190 0.00000
				CHANNELS 3 Xrotation Yrotation Zrotation
				JOINT LeftToeBase
				{
					OFFSET 0.00000 -1.61281 6.01911
					CHANNELS 3 Xrotation Yrotation Zrotation
					End Site
					{
						OFFSET 0.00000 0.00000 2.95275
					}
				}
			}
		}
	}
	JOINT RightUpLeg
	{
		OFFSET -3.76682 0.00000 0.00000
		CHANNELS 3 Xrotation Yrotation Zrotation
		JOINT RightLeg
		{
			OFFSET 0.00000 -17.03178 0.00000
			CHANNELS 3 Xrotation Yrotation Zrotation
			JOINT RightFoot
			{
				OFFSET 0.00000 -15.72190 0.00000
				CHANNELS 3 Xrotation Yrotation Zrotation
				JOINT RightToeBase
				{
					OFFSET 0.00000 -1.61281 6.01911
					CHANNELS 3 Xrotation Yrotation Zrotation
					End Site
					{
						OFFSET 0.00000 0.00000 2.95275
					}
				}
			}
		}
	}
	JOINT Spine
	{
		OFFSET 0.00000 0.03937 0.00000
		CHANNELS 3 Xrotation Yrotation Zrotation
		JOINT Spine1
		{
			OFFSET 0.00000 6.63648 0.00000
			CHANNELS 3 Xrotation Yrotation Zrotation
			JOINT Neck
			{
				OFFSET 0.00000 10.89313 0.00000
				CHANNELS 3 Xrotation Yrotation Zrotation
				JOINT Head
				{
					OFFSET 0.00000 5.84841 0.00000
					CHANNELS 3 Xrotation Yrotation Zrotation
					End Site
					{
						OFFSET 0.00000 4.52755 0.00000
					}
				}
			}
			JOINT LeftShoulder
			{
				OFFSET 0.00000 10.89313 0.00000
				CHANNELS 3 Xrotation Yrotation Zrotation
				JOINT LeftArm
				{
					OFFSET 7.21266 -0.00003 0.00000
					CHANNELS 3 Xrotation Yrotation Zrotation
					JOINT LeftForeArm
					{
						OFFSET 9.64829 -0.00004 0.00000
						CHANNELS 3 Xrotation Yrotation Zrotation
						JOINT LeftHand
						{
							OFFSET 9.06793 -0.00003 0.00000
							CHANNELS 3 Xrotation Yrotation Zrotation
							JOINT LeftHandThumb
							{
								OFFSET 0.00000 0.00000 0.00000
								CHANNELS 3 Xrotation Yrotation Zrotation
								End Site
								{
									OFFSET 0.00000 0.00000 3.93700
								}
							}
							JOINT L_Wrist_End
							{
								OFFSET 3.93700 -0.00001 0.00000
								CHANNELS 3 Xrotation Yrotation Zrotation
							}
						}
					}
				}
			}
			JOINT RightShoulder
			{
				OFFSET 0.00000 10.89313 0.00000
				CHANNELS 3 Xrotation Yrotation Zrotation
				JOINT RightArm
				{
					OFFSET -7.21266 -0.00003 0.00000
					CHANNELS 3 Xrotation Yrotation Zrotation
					JOINT RightForeArm
					{
						OFFSET -9.64829 -0.00004 0.00000
						CHANNELS 3 Xrotation Yrotation Zrotation
						JOINT RightHand
						{
							OFFSET -9.06793 -0.00003 0.00000
							CHANNELS 3 Xrotation Yrotation Zrotation
							JOINT RightHandThumb
							{
								OFFSET 0.00000 0.00000 0.00000
								CHANNELS 3 Xrotation Yrotation Zrotation
								End Site
								{
									OFFSET 0.00000 0.00000 3.93700
								}
							}
							JOINT R_Wrist_End
							{
								OFFSET -5.39369 -0.00002 0.00000
								CHANNELS 3 Xrotation Yrotation Zrotation
							}
						}
					}
				}
			}
		}
	}
}
MOTION
Frames: 16
Frame Time: 0.008333
 5.8865 34.5448 4.4812 0.4671 3.5789 -1.4088 12.5245 1.3406 1.4922 10.2148 -0.0000 0.0000 -13.9024 6.3264 -0.4859 -11.6514 -0.0000 -0.0000 -28.0198 -6.5695 0.8325 29.6406 -0.0000 0.0000 0.7936 -6.0910 3.3480 -9.6421 0.0000 -0.0000 -14.9009 -5.8774 -4.8414 20.0472 0.7524 5.4528 22.3418 5.9605 10.7557 -19.2252 14.4789 -10.5330 -0.5516 -18.0667 17.1347 -26.0382 -35.9526 -39.5799 -0.0022 -84.5060 -0.0020 7.1053 -1.0567 -0.8536 0.0000 -0.0000 0.0000 0.0000 -0.0000 0.0000 8.4111 -1.8089 -6.3667 17.7901 13.2795 52.3527 -179.9988 80.2413 179.9985 -4.5639 -34.6496 -13.0068 -0.0000 -0.0000 -0.0000 -0.0000 -0.0000 -0.0000
 5.8541 34.5078 4.7116 0.4949 3.6176 -1.3390 12.4968 1.3025 1.5334 11.0035 -0.0000 0.0000 -14.1341 6.2966 -0.9098 -11.9556 0.0000 0.0000 -27.6729 -6.8785 0.9763 29.4643 -0.0000 0.0000 0.5276 -7.2518 2.5921 -9.5743 0.0000 -0.0000 -14.8839 -5.9556 -4.9577 19.9547 0.7547 5.5786 22.3138 6.4359 10.3999 -19.4250 13.9810 -10.4264 -1.0222 -18.4867 16.8864 -26.3112 -35.6377 -39.6881 -0.0023 -84.8553 -0.0021 6.9315 -0.5772 -1.2785 -0.0000 0.0000 0.0000 -0.0000 0.0000 0.0000 8.5562 -2.0352 -6.7211 17.8266 13.3014 52.6702 -179.9987 80.7245 179.9985 -4.7936 -34.5201 -13.3633 0.0000 -0.0000 0.0000 0.0000 -0.0000 0.0000
 5.8078 34.4737 4.9613 0.4102 3.6964 -1.3621 12.5755 1.2474 1.7077 11.8505 0.0000 0.0000 -14.2852 6.2571 -1.1821 -12.5400 0.0000 -0.0000 -27.0834 -7.2609 1.2345 29.2266 -0.0000 0.0000 0.2375 -8.2722 1.9584 -9.3365 0.0000 0.0000 -14.8126 -6.1565 -5.1217 19.9320 0.6789 5.7789 22.1605 6.4897 10.2646 -19.2087 14.0298 -10.5637 -1.2666 -18.4054 16.8734 -27.1161 -35.5237 -40.5259 -0.0023 -84.8661 -0.0021 7.3933 -0.4547 -1.2122 0.0000 0.0000 0.0000 0.0000 0.0000 0.0000 8.5478 -1.9902 -6.8561 18.2351 13.1858 52.7042 -179.9987 81.1280 179.9984 -5.2744 -34.4417 -13.6711 -0.0000 -0.0000 -0.0000 -0.0000 -0.0000 -0.0000
 5.7713 34.4370 5.2012 0.4953 3.6374 -1.2577 12.4337 1.1420 1.6930 12.8083 -0.0000 0.0000 -14.4368 6.3706 -1.6267 -12.9759 0.0000 0.0000 -26.7497 -7.3672 1.4053 29.1209 -0.0000 0.0000 0.1009 -8.9769 1.5268 -9.4005 -0.0000 -0.0000 -14.8423 -6.1656 -5.1499 19.8238 0.6568 5.7394 22.1051 6.6486 10.0794 -19.2798 13.8487 -10.5660 -1.4779 -18.4741 16.7666 -27.7470 -35.4193 -41.2237 -0.0024 -84.9351 -0.0022 7.5819 -0.2490 -1.1331 -0.0000 0.0000 -0.0000 -0.0000 0.0000 -0.0000 8.6896 -2.0814 -7.0282 18.3846 13.0803 53.0527 -179.9986 81.7288 179.9983 -4.8158 -34.6941 -13.5412 -0.0000 0.0000 0.0000 -0.0000 0.0000 0.0000
 5.7141 34.4098 5.4719 0.3453 3.7034 -1.4173 12.4977 1.0479 2.0328 13.8980 -0.0000 0.0000 -14.6015 6.3722 -1.9350 -13.4956 0.0000 -0.0000 -25.9834 -7.6439 1.8461 28.8348 -0.0000 0.0000 0.3377 -9.0827 -0.1479 -9.5684 -0.0000 -0.0000 -14.7962 -6.2999 -5.1244 19.8696 0.5938 5.9031 22.0472 6.8423 9.8102 -19.2674 13.6535 -10.5448 -1.3871 -18.4653 16.7136 -28.5268 -35.0900 -42.0799 -0.0025 -85.1248 -0.0023 7.8319 -0.0409 -1.1736 0.0000 0.0000 0.0000 0.0000 0.0000 0.0000 8.7425 -2.1537 -7.1817 18.7538 13.1863 53.3461 -179.9984 82.5349 179.9982 -4.7976 -34.6812 -13.7321 0.0000 -0.0000 -0.0000 0.0000 -0.0000 -0.0000
 5.6656 34.3769 5.7245 0.4214 3.6430 -1.2983 12.2843 0.8874 2.0314 15.0487 -0.0000 0.0000 -14.6025 6.4225 -2.4281 -14.2005 0.0000 -0.0000 -25.6232 -7.6556 2.0453 28.7870 -0.0000 0.0000 0.4237 -8.9658 -1.7721 -9.6292 0.0000 -0.0000 -14.8460 -6.3012 -5.1709 19.7617 0.5673 5.8333 21.9419 6.8590 9.6929 -19.1554 13.5973 -10.5787 -1.5148 -18.4593 16.5638 -29.0239 -34.9796 -42.9882 -0.0025 -85.1573 -0.0023 8.2204 0.1445 -0.8287 0.0000 0.0000 -0.0000 0.0000 0.0000 -0.0000 8.9093 -2.2140 -7.2304 18.9795 13.2040 53.7283 -179.9982 83.4821 179.9979 -4.7671 -34.5503 -13.6381 -0.0000 0.0000 0.0000 -0.0000 0.0000 0.0000
 5.6065 34.3496 5.9916 0.4124 3.7283 -1.3030 12.0725 0.6219 2.2182 16.3955 -0.0000 0.0000 -14.6133 6.4473 -2.9512 -14.8449 0.0000 -0.0000 -25.0712 -7.7076 2.3402 28.5945 -0.0000 0.0000 0.3861 -8.8059 -3.0483 -9.4279 -0.0000 -0.0000 -14.8785 -6.3973 -5.1707 19.7393 0.4597 5.8219 21.8674 6.9498 9.5287 -19.1251 13.5075 -10.6066 -1.4551 -18.4315 16.4769 -29.5359 -34.6095 -44.0158 -0.0026 -85.4148 -0.0024 8.4615 0.4169 -0.6559 0.0000 -0.0000 -0.0000 0.0000 -0.0000 -0.0000 8.8898 -2.3972 -7.2967 19.2813 13.5639 54.1262 -179.9977 84.6834 179.9975 -4.7499 -34.5928 -13.7318 0.0000 0.0000 0.0000 0.0000 0.0000 0.0000
 5.5265 34.3266 6.2708 0.3484 3.6349 -1.4562 11.9132 0.6983 2.5821 17.7890 -0.0000 0.0000 -14.5373 6.2885 -3.6080 -15.9214 0.0000 -0.0000 -24.4283 -7.5630 2.9396 28.2777 -0.0000 0.0000 0.5758 -8.8208 -5.2650 -9.3093 -0.0000 -0.0000 -14.9228 -6.3955 -5.0727 19.7800 0.4582 5.8675 21.8055 6.9446 9.3834 -19.0726 13.4257 -10.6997 -1.4651 -18.3698 16.2679 -29.9484 -34.2792 -45.1240 -0.0027 -85.5781 -0.0025 8.7327 0.4891 -0.6295 0.0000 -0.0000 0.0000 0.0000 -0.0000 0.0000 8.9557 -2.4826 -7.2995 19.5706 13.7210 54.6695 -179.9971 85.9113 179.9968 -4.6811 -34.4734 -13.6966 0.0000 -0.0000 0.0000 0.0000 -0.0000 0.0000
 5.4590 34.3063 6.5501 0.3316 3.5880 -1.4314 11.6345 0.4838 2.7344 19.3224 -0.0000 0.0000 -14.3121 6.3012 -4.3084 -16.8839 0.0000 -0.0000 -24.0040 -7.0401 3.2770 28.2481 -0.0000 0.0000 0.6238 -9.2139 -6.1847 -9.2223 0.0000 0.0000 -14.9669 -6.4129 -5.0596 19.7338 0.4156 5.8239 21.7472 6.9655 9.2519 -19.0099 13.3386 -10.7925 -1.4600 -18.2771 15.9926 -30.2400 -33.9003 -46.3058 -0.0029 -85.8219 -0.0027 9.1766 0.7453 -0.7349 -0.0000 0.0000 0.0000 -0.0000 0.0000 0.0000 9.0595 -2.5817 -7.2513 19.7722 13.9551 55.2166 -179.9955 87.3339 179.9953 -4.4256 -34.5424 -13.6724 -0.0000 0.0000 0.0000 -0.0000 0.0000 0.0000
 5.3787 34.2881 6.8295 0.2941 3.4115 -1.4584 11.2908 0.4587 2.9498 21.0303 -0.0000 0.0000 -13.9684 6.1876 -5.0492 -18.2319 0.0000 0.0000 -23.7952 -6.1562 3.7232 28.7550 -0.0000 0.0000 0.0823 -10.0781 -6.4646 -9.1392 0.0000 0.0000 -14.9556 -6.3519 -4.9838 19.6523 0.4593 5.7944 21.6145 7.0529 9.0072 -18.9076 13.0672 -10.7579 -1.5226 -18.1467 15.5816 -30.2102 -33.8064 -47.3844 -0.0030 -85.9588 -0.0028 9.6400 1.0423 0.0346 0.0000 0.0000 0.0000 0.0000 0.0000 0.0000 9.0994 -2.7230 -7.1750 19.9812 14.2131 55.8782 -179.9888 88.9264 179.9886 -4.2829 -34.4278 -13.6938 0.0000 0.0000 0.0000 0.0000 0.0000 0.0000
 5.2900 34.2758 7.1137 0.2446 3.2386 -1.5118 10.8571 0.4132 3.2189 22.9235 -0.0000 0.0000 -13.4861 6.0200 -5.9661 -19.7596 -0.0000 0.0000 -23.7218 -5.0895 4.1985 29.5931 -0.0000 0.0000 -0.7296 -10.9259 -6.2075 -9.3162 0.0000 0.0000 -14.9136 -6.3030 -4.9119 19.5277 0.4975 5.7659 21.6117 6.9357 8.9606 -18.8775 13.0059 -10.9778 -1.5164 -18.0664 15.1973 -30.1558 -33.3959 -48.6638 -0.0032 -86.2227 -0.0030 10.1282 1.2054 0.1235 -0.0000 0.0000 -0.0000 -0.0000 0.0000 -0.0000 9.1465 -2.8420 -6.9928 20.1344 14.4822 56.5250 -0.0169 89.2854 0.0167 -4.2881 -34.2835 -13.8304 -0.0000 -0.0000 -0.0000 -0.0000 -0.0000 -0.0000
 5.1966 34.2645 7.4003 0.1707 3.0317 -1.5815 10.3376 0.4885 3.5340 25.0065 -0.0000 0.0000 -12.8409 5.7015 -6.9911 -21.4940 0.0000 -0.0000 -23.6573 -4.0697 4.7134 30.4353 -0.0000 0.0000 -1.1934 -11.6482 -6.0359 -9.3012 0.0000 -0.0000 -14.8462 -6.2291 -4.8054 19.3968 0.5574 5.7332 21.5121 6.9407 8.7688 -18.7480 12.7219 -11.0102 -1.5530 -17.9570 14.6820 -29.9057 -33.0658 -49.8814 -0.0034 -86.4419 -0.0032 10.6324 1.3063 0.3201 0.0000 -0.0000 0.0000 0.0000 -0.0000 0.0000 9.2316 -2.9710 -6.8337 20.2066 14.7826 57.3154 -0.0045 87.2959 0.0043 -4.3093 -33.9958 -14.1267 0.0000 0.0000 -0.0000 0.0000 0.0000 -0.0000
 5.0940 34.2577 7.7018 0.0954 2.8273 -1.7575 9.7009 0.7483 4.0246 27.2850 -0.0000 0.0000 -11.9687 5.1366 -8.0329 -23.7059 0.0000 -0.0000 -23.4644 -3.2184 5.3500 31.0426 -0.0000 0.0000 -1.4733 -12.3014 -6.1878 -9.3219 -0.0000 -0.0000 -14.7847 -6.1543 -4.6195 19.2299 0.6099 5.7160 21.5160 6.8073 8.6934 -18.6531 12.4903 -11.2165 -1.5510 -17.9011 14.1067 -29.4668 -32.6284 -51.1126 -0.0037 -86.7185 -0.0035 11.0067 1.3692 0.3990 -0.0000 -0.0000 -0.0000 -0.0000 -0.0000 -0.0000 9.4754 -3.1676 -6.5824 20.0396 15.1224 58.1185 -0.0024 85.0743 0.0022 -4.4579 -33.7140 -14.5307 0.0000 -0.0000 -0.0000 0.0000 -0.0000 -0.0000
 4.9995 34.2500 8.0055 -0.0705 2.5839 -1.8472 9.0287 1.0052 4.4367 29.7680 -0.0000 0.0000 -10.8868 4.5003 -9.1419 -25.9810 0.0000 0.0000 -23.2141 -2.3706 5.9050 31.7140 -0.0000 0.0000 -1.9269 -12.9307 -6.3060 -9.3490 0.0000 -0.0000 -14.7381 -6.0810 -4.4559 19.1956 0.6262 5.6211 21.4962 6.7768 8.5537 -18.5863 12.1772 -11.3512 -1.4836 -17.7211 13.5589 -29.0066 -32.1916 -52.3879 -0.0039 -86.9172 -0.0037 11.5144 1.4105 0.6463 0.0000 -0.0000 -0.0000 0.0000 -0.0000 -0.0000 9.7000 -3.2251 -6.3844 19.7388 15.4161 59.0554 -0.0016 82.6591 0.0014 -4.9632 -33.3942 -15.0360 0.0000 0.0000 -0.0000 0.0000 0.0000 -0.0000
 4.9087 34.2410 8.3123 -0.2794 2.3238 -1.9037 8.2508 1.3395 4.8531 32.4607 -0.0000 0.0000 -9.5382 3.7231 -10.1860 -28.4976 0.0000 -0.0000 -22.8808 -1.6834 6.3947 32.3470 -0.0000 0.0000 -2.4566 -13.4098 -6.5373 -9.2775 0.0000 -0.0000 -14.6645 -5.9972 -4.2813 19.1701 0.6375 5.4851 21.5343 6.6510 8.4910 -18.6016 11.9149 -11.6248 -1.4274 -17.5392 12.9990 -28.4234 -31.6838 -53.7282 -0.0041 -87.0790 -0.0039 11.7532 1.2007 1.0612 -0.0000 0.0000 0.0000 -0.0000 0.0000 0.0000 9.9270 -3.2489 -6.1847 19.3537 15.6595 60.0563 -0.0012 80.0932 0.0010 -6.1439 -32.8724 -15.7843 0.0000 -0.0000 -0.0000 0.0000 -0.0000 -0.0000
 4.8103 34.2241 8.6218 -0.5147 2.0435 -2.0061 7.3375 1.7706 5.3879 35.3737 -0.0000 0.0000 -7.9702 2.7948 -11.3556 -31.3290 0.0000 -0.0000 -22.4731 -1.0307 6.9367 32.8871 -0.0000 0.0000 -3.0278 -13.8695 -6.5784 -9.3162 0.0000 0.0000 -14.5494 -5.9099 -4.0469 19.1085 0.6285 5.3032 21.5660 6.4918 8.4363 -18.5433 11.5991 -11.8878 -1.4126 -17.3048 12.4312 -27.6407 -31.2527 -55.0785 -0.0042 -87.1394 -0.0040 12.4106 1.2182 1.5087 -0.0000 0.0000 0.0000 -0.0000 0.0000 0.0000 10.2243 -3.3477 -5.9361 18.7357 15.9621 61.0679 -0.0009 77.2812 0.0007 -7.2065 -32.4101 -16.3654 0.0000 0.0000 0.0000 0.0000 0.0000 0.0000
